<?xml version="1.0" encoding="iso-8859-1"?>
<!-- Uploaded to: SVG Repo, www.svgrepo.com, Generator: SVG Repo Mixer Tools -->
<svg fill="#C8A96A" height="800px" width="800px" version="1.1" id="Capa_1" xmlns="http://www.w3.org/2000/svg" xmlns:xlink="http://www.w3.org/1999/xlink" 
	 viewBox="0 0 490 490" xml:space="preserve">
<g>
	<path d="M124.062,287.327c-18.119,18.119-15.531,50.083,5.78,71.393c21.311,21.311,53.275,23.898,71.393,5.78
		c18.119-18.119,15.531-50.083-5.78-71.394C174.145,271.797,142.181,269.209,124.062,287.327z M186.239,349.504
		c-10.009,10.009-28.684,7.561-41.712-5.468c-13.028-13.028-15.477-31.703-5.468-41.712c10.008-10.008,28.683-7.56,41.712,5.468
		C193.799,320.82,196.247,339.496,186.239,349.504z"/>
	<path d="M329.137,156.604c-18.119,18.119-15.531,50.083,5.78,71.393c21.311,21.311,53.275,23.898,71.393,5.78
		c18.119-18.119,15.531-50.083-5.78-71.394S347.256,138.486,329.137,156.604z M391.314,218.781
		c-10.008,10.008-28.684,7.56-41.712-5.468c-13.028-13.028-15.477-31.703-5.468-41.712c10.009-10.009,28.684-7.561,41.712,5.468
		C398.874,190.097,401.322,208.773,391.314,218.781z"/>
	<path d="M193.012,69.302c-20.766,20.766-17.8,57.401,6.624,81.826c24.425,24.425,61.06,27.391,81.826,6.625
		c20.766-20.767,17.8-57.401-6.625-81.826C250.413,51.502,213.778,48.536,193.012,69.302z M266.942,143.232
		c-12.603,12.603-36.119,9.52-52.524-6.885s-19.488-39.921-6.885-52.524c12.603-12.603,36.119-9.52,52.524,6.885
		C276.462,107.113,279.545,130.63,266.942,143.232z"/>
	<path d="M174.871,237.614c20.766-20.766,17.801-57.401-6.624-81.826c-24.425-24.425-61.06-27.391-81.826-6.625
		c-20.766,20.766-17.8,57.401,6.624,81.826C117.471,255.415,154.105,258.38,174.871,237.614z M99.608,162.351
		c13.169-13.169,37.741-9.948,54.883,7.194c17.142,17.142,20.363,41.714,7.195,54.883c-13.169,13.169-37.741,9.948-54.883-7.194
		C89.66,200.091,86.439,175.519,99.608,162.351z"/>
	<path d="M395.559,95.015C335.357,34.631,258.427,0,184.502,0c-53.023,0-98.91,17.821-132.691,51.542
		c-83.038,82.855-63.948,237.17,42.567,344.002c54.785,54.948,125.401,89.335,193.727,94.344c1.049,0.077,2.087,0.113,3.136,0.113
		c18.917,0,35.207-12.05,39.717-29.627c8.023-32.285-17.685-59.698-37.721-77.515c-21.116-18.759-41.173-39.004-34.494-62.075
		c2.433-8.425,8.919-15.958,17.349-20.148c20.424-10.145,46.661-2.393,64.213,17.669c11.107,12.691,19.364,30.086,25.229,53.192
		l1.212,4.922c3.37,13.724,7.188,29.286,18.316,40.96c2.922,3.074,6.313,5.778,10.06,8.033c7.178,4.327,15.444,6.617,23.885,6.617
		c18.042,0,35.206-9.998,44.797-26.083C516.246,318.044,487.545,187.278,395.559,95.015z M445.904,395.264
		c-8.349,13.989-27.102,20.077-40.023,12.289c-2.158-1.298-4.083-2.831-5.732-4.561c-7.29-7.651-10.131-19.258-13.154-31.542
		l-1.252-5.086c-6.689-26.359-16.422-46.574-29.75-61.795c-16.126-18.427-38.658-29.433-60.251-29.433
		c-10.079,0-19.813,2.296-28.935,6.827c-13.766,6.847-24.008,18.881-28.101,33.023c-10.894,37.644,21.391,66.325,40.685,83.459
		c25.402,22.592,35.359,40.669,31.612,55.941l-0.336,1.145c-2.128,8.354-11.271,14.264-21.035,13.556
		c-63.408-4.643-129.189-36.815-180.492-88.266C10.74,282.13-8.37,141.04,66.533,66.304c29.8-29.734,70.586-45.453,117.969-45.453
		c68.428,0,139.971,32.396,196.294,88.887C466.145,195.346,493.532,315.427,445.904,395.264z"/>
</g>
</svg>